<svg width="146" height="146" viewBox="0 0 146 146" fill="none" xmlns="http://www.w3.org/2000/svg">
<path d="M59.0692 68.6809C57.9237 67.5354 56.3701 66.8918 54.7501 66.8918C53.1301 66.8918 51.5764 67.5354 50.4309 68.6809C49.2854 69.8264 48.6418 71.38 48.6418 73C48.6418 74.62 49.2854 76.1737 50.4309 77.3192L68.6809 95.5692C69.2493 96.133 69.9235 96.5791 70.6646 96.8818C71.4058 97.1846 72.1995 97.338 73.0001 97.3334C73.8329 97.307 74.6514 97.1097 75.4048 96.754C76.1582 96.3982 76.8306 95.8914 77.3801 95.265L119.963 46.5984C120.947 45.3776 121.421 43.8244 121.287 42.2627C121.153 40.7009 120.421 39.2511 119.245 38.2156C118.068 37.1801 116.537 36.6387 114.971 36.7045C113.405 36.7702 111.924 37.4379 110.838 38.5684L73.0001 82.3684L59.0692 68.6809Z" fill="#7CD1B8"/>
<path d="M127.75 66.9166C126.137 66.9166 124.589 67.5576 123.448 68.6984C122.308 69.8392 121.667 71.3866 121.667 73C121.667 85.9072 116.539 98.2857 107.413 107.413C98.2858 116.539 85.9072 121.667 73 121.667C63.3889 121.662 53.9942 118.812 46.0007 113.476C38.0072 108.139 31.7728 100.555 28.0836 91.6805C24.3944 82.8056 23.4156 73.037 25.2707 63.6066C27.1258 54.1762 31.7317 45.5062 38.5075 38.69C43.0134 34.1237 48.3849 30.502 54.3075 28.0369C60.2301 25.5718 66.5849 24.3127 73 24.3333C76.89 24.3576 80.7657 24.8064 84.5583 25.6716C85.352 25.9171 86.1876 25.9974 87.0135 25.9077C87.8394 25.8179 88.6381 25.5599 89.3605 25.1495C90.0829 24.7392 90.7135 24.1853 91.2136 23.5219C91.7137 22.8585 92.0727 22.0997 92.2683 21.2923C92.4639 20.4849 92.492 19.646 92.351 18.8273C92.21 18.0086 91.9027 17.2274 91.4483 16.532C90.9938 15.8365 90.4017 15.2416 89.7084 14.7837C89.0152 14.3259 88.2355 14.0149 87.4175 13.87C82.6917 12.7582 77.8548 12.1867 73 12.1666C60.9814 12.2291 49.2506 15.8502 39.288 22.5731C29.3254 29.296 21.5774 38.8193 17.0219 49.9413C12.4664 61.0632 11.3074 73.2854 13.6914 85.0654C16.0753 96.8454 21.8952 107.655 30.4167 116.131C41.7115 127.431 57.0231 133.796 73 133.833C89.134 133.833 104.607 127.424 116.016 116.016C127.424 104.607 133.833 89.134 133.833 73C133.833 71.3866 133.192 69.8392 132.052 68.6984C130.911 67.5576 129.363 66.9166 127.75 66.9166Z" fill="#7CD1B8"/>
</svg>
