<svg width="54" height="70" viewBox="0 0 54 70" fill="none" xmlns="http://www.w3.org/2000/svg">
<path d="M23.1352 24.3646L21.8036 1.51895C21.7929 1.32348 21.8221 1.12788 21.8896 0.944103C21.9571 0.760323 22.0614 0.59222 22.1962 0.450061C22.3309 0.307903 22.4932 0.194674 22.6732 0.117292C22.8533 0.0399105 23.0472 5.5483e-07 23.2431 0H30.7569C30.9528 5.5483e-07 31.1467 0.0399105 31.3268 0.117292C31.5068 0.194674 31.6691 0.307903 31.8038 0.450061C31.9386 0.59222 32.0429 0.760323 32.1104 0.944103C32.1779 1.12788 32.2071 1.32348 32.1964 1.51895L30.8648 24.3646H23.1352ZM44.5972 28.6851H9.40282C6.90989 28.688 4.51989 29.6785 2.75713 31.4394C0.994377 33.2003 0.00282368 35.5877 0 38.0779V40.9681H54V38.0779C53.9972 35.5877 53.0056 33.2003 51.2429 31.4394C49.4801 29.6785 47.0901 28.688 44.5972 28.6851V28.6851ZM0 70H9.40988V60.7269C9.40988 60.154 9.63773 59.6045 10.0433 59.1994C10.4489 58.7942 10.9989 58.5666 11.5725 58.5666C12.146 58.5666 12.6961 58.7942 13.1017 59.1994C13.5072 59.6045 13.7351 60.154 13.7351 60.7269V70H31.5061V53.7673C31.5061 53.1943 31.734 52.6449 32.1395 52.2397C32.5451 51.8346 33.0952 51.607 33.6687 51.607C34.2423 51.607 34.7923 51.8346 35.1979 52.2397C35.6035 52.6449 35.8313 53.1943 35.8313 53.7673V70H41.061V62.1184C41.061 61.5455 41.2889 60.996 41.6945 60.5909C42.1 60.1857 42.6501 59.9581 43.2236 59.9581C43.7972 59.9581 44.3473 60.1857 44.7528 60.5909C45.1584 60.996 45.3862 61.5455 45.3862 62.1184V69.9999H54V45.2886H0V70Z" fill="white"/>
</svg>
