<svg width="64" height="64" viewBox="0 0 64 64" fill="none" xmlns="http://www.w3.org/2000/svg">
<path d="M30 48C30 49.104 30.896 50 32 50C33.104 50 34 49.104 34 48V30C34 28.896 33.104 28 32 28C30.896 28 30 28.896 30 30V48ZM24 30C22.896 30 22 30.896 22 32V44C22 45.104 22.896 46 24 46C25.104 46 26 45.104 26 44V32C26 30.896 25.104 30 24 30ZM40 46C41.104 46 42 45.104 42 44V32C42 30.896 41.104 30 40 30C38.896 30 38 30.896 38 32V44C38 45.104 38.896 46 40 46Z" fill="white"/>
<path d="M56 6H47.441L45.897 1.368C45.625 0.551 44.861 0 44 0H20C19.139 0 18.375 0.551 18.103 1.368L16.559 6H8C6.896 6 6 6.896 6 8V16C6 17.104 6.896 18 8 18H10V58C10 61.309 12.691 64 16 64H48C51.309 64 54 61.309 54 58V18H56C57.104 18 58 17.104 58 16V8C58 6.896 57.104 6 56 6ZM54 14H52H32C30.896 14 30 14.896 30 16C30 17.104 30.896 18 32 18H50V58C50 59.103 49.103 60 48 60H16C14.897 60 14 59.103 14 58V16C14 14.896 13.104 14 12 14H10V10H18C18.861 10 19.625 9.449 19.897 8.632L21.441 4H42.558L44.102 8.632C44.375 9.449 45.139 10 46 10H54V14Z" fill="white"/>
<path d="M22.59 14.59C22.21 14.96 22 15.47 22 16C22 16.53 22.21 17.04 22.59 17.41C22.96 17.79 23.47 18 24 18C24.53 18 25.04 17.79 25.41 17.41C25.79 17.04 26 16.53 26 16C26 15.47 25.79 14.96 25.41 14.59C24.66 13.84 23.33 13.84 22.59 14.59Z" fill="white"/>
</svg>
