<svg width="56" height="90" viewBox="0 0 56 90" fill="none" xmlns="http://www.w3.org/2000/svg">
<path d="M46 0H10C4.49 0 0 4.49 0 10V80C0 85.51 4.49 90 10 90H46C51.51 90 56 85.51 56 80V10C56 4.49 51.51 0 46 0ZM4 14H52V70H4V14ZM10 4H46C49.31 4 52 6.69 52 10H4C4 6.69 6.69 4 10 4ZM46 86H10C6.69 86 4 83.31 4 80V74H52V80C52 83.31 49.31 86 46 86Z" fill="white"/>
<path d="M28 82C29.1046 82 30 81.1046 30 80C30 78.8954 29.1046 78 28 78C26.8954 78 26 78.8954 26 80C26 81.1046 26.8954 82 28 82Z" fill="white"/>
<path d="M26.59 50.41C26.98 50.8 27.49 51 28 51C28.51 51 29.02 50.8 29.41 50.41L37.41 42.41C38.19 41.63 38.19 40.36 37.41 39.58C36.63 38.8 35.36 38.8 34.58 39.58L30 44.17V25C30 23.9 29.1 23 28 23C26.9 23 26 23.9 26 25V44.17L21.41 39.58C20.63 38.8 19.36 38.8 18.58 39.58C17.8 40.36 17.8 41.63 18.58 42.41L26.59 50.41ZM44 51C42.9 51 42 51.9 42 53V55C42 56.1 41.1 57 40 57H16C14.9 57 14 56.1 14 55V53C14 51.9 13.1 51 12 51C10.9 51 10 51.9 10 53V55C10 58.31 12.69 61 16 61H40C43.31 61 46 58.31 46 55V53C46 51.9 45.1 51 44 51Z" fill="white"/>
</svg>
