<svg width="91" height="91" viewBox="0 0 91 91" fill="none" xmlns="http://www.w3.org/2000/svg">
<g clip-path="url(#clip0_1_92)">
<path d="M59.4486 26.582C59.2988 26.4645 59.1269 26.3784 58.9432 26.3286C58.7595 26.2788 58.5676 26.2665 58.379 26.2922C58.1904 26.318 58.0089 26.3814 57.8453 26.4786C57.6816 26.5758 57.5391 26.7049 57.4263 26.8582C57.3135 27.0115 57.2326 27.1859 57.1884 27.371C57.1442 27.5562 57.1377 27.7483 57.1691 27.936C57.2006 28.1238 57.2694 28.3033 57.3716 28.4639C57.4737 28.6246 57.607 28.763 57.7637 28.8712C59.3512 30.044 60.7656 31.4345 61.9653 33.0017C64.3616 36.1448 65.804 39.9103 66.1206 43.8499C66.4373 47.7895 65.6149 51.7371 63.7515 55.2225C61.888 58.708 59.062 61.5843 55.61 63.509C52.158 65.4338 48.2256 66.3257 44.281 66.0787C40.3364 65.8316 36.546 64.456 33.3611 62.1156C30.1763 59.7753 27.7312 56.5688 26.3172 52.8781C24.9032 49.1874 24.5798 45.168 25.3855 41.2987C26.1912 37.4294 28.0921 33.8732 30.8618 31.0538V36.2578C30.8618 36.6349 31.0116 36.9966 31.2783 37.2632C31.5449 37.5299 31.9066 37.6797 32.2837 37.6797C32.6608 37.6797 33.0225 37.5299 33.2891 37.2632C33.5558 36.9966 33.7056 36.6349 33.7056 36.2578V27.7266C33.7056 27.3495 33.5558 26.9878 33.2891 26.7211C33.0225 26.4545 32.6608 26.3047 32.2837 26.3047H23.397C23.0199 26.3047 22.6582 26.4545 22.3916 26.7211C22.1249 26.9878 21.9751 27.3495 21.9751 27.7266C21.9751 28.1037 22.1249 28.4653 22.3916 28.732C22.6582 28.9986 23.0199 29.1484 23.397 29.1484H28.7361C25.7092 32.2636 23.6065 36.1579 22.6622 40.3976C21.7179 44.6373 21.9692 49.0559 23.388 53.1612C24.8068 57.2666 27.3375 60.8974 30.698 63.6493C34.0586 66.4013 38.1172 68.1662 42.4217 68.7477C43.4798 68.8892 44.5462 68.9604 45.6138 68.9609C49.9817 68.9518 54.2604 67.7235 57.9681 65.4143C61.6757 63.1051 64.6651 59.8066 66.5995 55.8904C68.534 51.9741 69.3368 47.5956 68.9175 43.2478C68.4981 38.9 66.8734 34.7556 64.2261 31.2813C62.8657 29.4952 61.2569 27.9128 59.4486 26.582V26.582Z" fill="white"/>
<path d="M45.436 47.2773H45.5C45.8771 47.2773 46.2388 47.1275 46.5054 46.8609C46.7721 46.5942 46.9219 46.2326 46.9219 45.8555V23.4609C46.9219 23.0838 46.7721 22.7222 46.5054 22.4555C46.2388 22.1889 45.8771 22.0391 45.5 22.0391H45.436C45.0589 22.0391 44.6973 22.1889 44.4306 22.4555C44.164 22.7222 44.0142 23.0838 44.0142 23.4609V45.8555C44.0142 46.2326 44.164 46.5942 44.4306 46.8609C44.6973 47.1275 45.0589 47.2773 45.436 47.2773Z" fill="white"/>
<path d="M45.5 0C36.501 0 27.704 2.66853 20.2216 7.66813C12.7391 12.6677 6.90729 19.7739 3.4635 28.0879C0.0197143 36.4019 -0.881337 45.5505 0.87429 54.3766C2.62992 63.2027 6.96337 71.3101 13.3267 77.6734C19.69 84.0366 27.7973 88.3701 36.6234 90.1257C45.4495 91.8814 54.5981 90.9803 62.9121 87.5365C71.2262 84.0927 78.3323 78.2609 83.3319 70.7784C88.3315 63.296 91 54.499 91 45.5C90.9868 33.4367 86.1889 21.8712 77.6588 13.3412C69.1288 4.81114 57.5633 0.0131726 45.5 0V0ZM45.5 88.1562C37.0634 88.1562 28.8163 85.6545 21.8015 80.9674C14.7867 76.2802 9.31933 69.6183 6.09078 61.8238C2.86223 54.0294 2.0175 45.4527 3.6634 37.1782C5.3093 28.9037 9.37191 21.3031 15.3375 15.3375C21.3031 9.37189 28.9037 5.30928 37.1782 3.66338C45.4527 2.01748 54.0295 2.86221 61.8239 6.09076C69.6183 9.31931 76.2803 14.7867 80.9674 21.8015C85.6545 28.8162 88.1563 37.0634 88.1563 45.5C88.1431 56.8091 83.6447 67.6512 75.648 75.648C67.6513 83.6447 56.8091 88.1431 45.5 88.1562V88.1562Z" fill="white"/>
</g>
<defs>
<clipPath id="clip0_1_92">
<rect width="91" height="91" fill="white"/>
</clipPath>
</defs>
</svg>
