<svg width="422" height="489" viewBox="0 0 422 489" fill="none" xmlns="http://www.w3.org/2000/svg">
<path d="M640.035 204.298C658.576 261.32 622.163 320.574 625.182 380.449C628.508 446.422 679.629 509.766 658.592 572.373C637.258 635.865 579.112 688.364 515.088 708.094C452.66 727.332 389.45 687.257 325.249 675.096C272.161 665.039 219.724 661.92 169.266 642.586C110.623 620.117 32.6864 610.517 7.07879 553.186C-18.9996 494.8 43.3586 432.792 47.0541 368.971C50.55 308.596 -4.99804 242.298 28.014 191.637C61.3452 140.487 146.92 167.214 199.143 135.575C254.735 101.893 274.93 18.5555 338.22 3.69644C401.341 -11.1228 466.974 24.1122 520.988 60.0131C573.82 95.1275 620.423 143.985 640.035 204.298Z" fill="#3E8E7E"/>
</svg>
