<svg width="1920" height="1080" viewBox="0 0 1920 1080" fill="none" xmlns="http://www.w3.org/2000/svg">
<circle cx="126" cy="139" r="240" stroke="#3E8E7E" stroke-width="86"/>
<path d="M2138.03 795.298C2156.58 852.32 2120.16 911.574 2123.18 971.449C2126.51 1037.42 2177.63 1100.77 2156.59 1163.37C2135.26 1226.87 2077.11 1279.36 2013.09 1299.09C1950.66 1318.33 1887.45 1278.26 1823.25 1266.1C1770.16 1256.04 1717.72 1252.92 1667.27 1233.59C1608.62 1211.12 1530.69 1201.52 1505.08 1144.19C1479 1085.8 1541.36 1023.79 1545.05 959.971C1548.55 899.596 1493 833.298 1526.01 782.637C1559.35 731.487 1644.92 758.214 1697.14 726.575C1752.74 692.893 1772.93 609.555 1836.22 594.696C1899.34 579.877 1964.97 615.112 2018.99 651.013C2071.82 686.128 2118.42 734.985 2138.03 795.298Z" fill="#3E8E7E"/>
</svg>
